<svg width="51" height="50" viewBox="0 0 51 50" version="1.1" xmlns="http://www.w3.org/2000/svg" xmlns:xlink="http://www.w3.org/1999/xlink">
<title>Group 4</title>
<desc>Created using Figma</desc>
<g id="Canvas" transform="translate(-9286 -1548)">
<g id="Group 4">
<g id="Rectangle 2.20">
<mask id="mask0_outline_ins">
<use xlink:href="#path0_fill" fill="white" transform="translate(9286 1548)"/>
</mask>
<g mask="url(#mask0_outline_ins)">
<use xlink:href="#path1_stroke_2x" transform="translate(9286 1548)" fill="#FFFFFF"/>
</g>
</g>
<g id="Group">
<g id="path8 1">
<use xlink:href="#path2_fill" transform="translate(9296 1562)" fill="#FFFFFF"/>
</g>
</g>
</g>
</g>
<defs>
<path id="path0_fill" d="M 0 25C 0 11.1929 11.3211 0 25.1282 0C 38.9353 0 50.2564 11.1929 50.2564 25C 50.2564 38.8071 38.9353 50 25.1282 50C 11.3211 50 0 38.8071 0 25Z"/>
<path id="path1_stroke_2x" d="M 25.1282 48C 12.4123 48 2 37.6893 2 25L -2 25C -2 39.925 10.2299 52 25.1282 52L 25.1282 48ZM 48.2564 25C 48.2564 37.6893 37.8441 48 25.1282 48L 25.1282 52C 40.0266 52 52.2564 39.925 52.2564 25L 48.2564 25ZM 25.1282 2C 37.8441 2 48.2564 12.3107 48.2564 25L 52.2564 25C 52.2564 10.075 40.0266 -2 25.1282 -2L 25.1282 2ZM 25.1282 -2C 10.2299 -2 -2 10.075 -2 25L 2 25C 2 12.3107 12.4123 2 25.1282 2L 25.1282 -2Z"/>
<path id="path2_fill" d="M 10.828 0.000225238C 10.4302 0.00322725 7.15185 0.0962894 3.69108 2.67502C 3.69108 2.67502 0 9.33948 0 17.544C 0 17.544 2.15363 21.2485 7.81888 21.4286C 7.81888 21.4286 8.76707 20.2968 9.5358 19.3182C 6.28142 18.3395 5.04907 16.3071 5.04907 16.3071C 5.04907 16.3071 5.30631 16.4873 5.76694 16.7454C 5.79387 16.7454 5.81779 16.7725 5.86864 16.7965C 5.94641 16.8475 6.02119 16.8745 6.09896 16.9256C 6.73907 17.2858 7.37918 17.568 7.97143 17.7991C 9.02132 18.2374 10.2776 18.6217 11.7403 18.9039C 13.6636 19.2641 15.9189 19.3932 18.3777 18.9309C 19.5831 18.6997 20.8125 18.3635 22.0957 17.8262C 22.993 17.4929 23.992 17.0036 25.0419 16.3071C 25.0419 16.3071 23.7617 18.3905 20.4027 19.3422C 21.1714 20.2938 22.0957 21.3986 22.0957 21.3986C 27.7609 21.2184 29.9145 17.514 29.9145 17.541C 29.9145 9.33347 26.2234 2.67201 26.2234 2.67201C 22.5563 -0.0778271 19.0447 0.000225238 19.0447 0.000225238L 18.6857 0.411501C 23.0439 1.72338 25.0689 3.65367 25.0689 3.65367C 22.4037 2.21271 19.7895 1.49222 17.3547 1.21004C 15.5061 1.0029 13.7384 1.05393 12.174 1.26107C 12.0214 1.26107 11.8928 1.28809 11.7373 1.3121C 10.8399 1.41417 8.66238 1.72338 5.91949 2.93319C 4.9713 3.34446 4.40597 3.65367 4.40597 3.65367C 4.40597 3.65367 6.51174 1.62131 11.1241 0.309432L 10.8669 0.000225238C 10.8669 0.000225238 10.8549 0.000225238 10.828 0.000225238ZM 10.1759 9.49258C 11.6356 9.49258 12.8171 10.7534 12.7902 12.3235C 12.7902 13.8935 11.6356 15.1544 10.1759 15.1544C 8.74015 15.1544 7.56164 13.8935 7.56164 12.3235C 7.56164 10.7534 8.71323 9.49258 10.1759 9.49258ZM 19.5322 9.49258C 20.968 9.49258 22.1465 10.7534 22.1465 12.3235C 22.1465 13.8935 20.9919 15.1544 19.5322 15.1544C 18.0965 15.1544 16.918 13.8935 16.918 12.3235C 16.918 10.7534 18.0696 9.49258 19.5322 9.49258Z"/>
</defs>
</svg>
