<svg width="51" height="50" viewBox="0 0 51 50" fill="none" xmlns="http://www.w3.org/2000/svg">
<mask id="mask0" mask-type="alpha" maskUnits="userSpaceOnUse" x="0" y="0" width="51" height="50">
<path d="M0 25C0 11.1929 11.3211 0 25.1282 0C38.9353 0 50.2564 11.1929 50.2564 25C50.2564 38.8071 38.9353 50 25.1282 50C11.3211 50 0 38.8071 0 25Z" fill="white"/>
</mask>
<g mask="url(#mask0)">
<path d="M25.1282 48C12.4123 48 2 37.6893 2 25H-2C-2 39.925 10.2299 52 25.1282 52V48ZM48.2564 25C48.2564 37.6893 37.8441 48 25.1282 48V52C40.0266 52 52.2564 39.925 52.2564 25H48.2564ZM25.1282 2C37.8441 2 48.2564 12.3107 48.2564 25H52.2564C52.2564 10.075 40.0266 -2 25.1282 -2V2ZM25.1282 -2C10.2299 -2 -2 10.075 -2 25H2C2 12.3107 12.4123 2 25.1282 2V-2Z" fill="white"/>
</g>
<path d="M25.0001 13.7055C28.6787 13.7055 29.1144 13.7196 30.5673 13.7859C31.9105 13.8472 32.6399 14.0715 33.1254 14.2602C33.7238 14.4811 34.2651 14.8332 34.7095 15.2908C35.1671 15.7352 35.5192 16.2765 35.7401 16.8749C35.9288 17.3603 36.1532 18.0898 36.2145 19.4331C36.2807 20.8858 36.2948 21.3215 36.2948 25.0002C36.2948 28.679 36.2807 29.1145 36.2145 30.5674C36.1531 31.9107 35.9287 32.6401 35.7401 33.1256C35.5109 33.7198 35.1598 34.2594 34.7095 34.7097C34.2592 35.16 33.7196 35.5111 33.1254 35.7403C32.64 35.9289 31.9105 36.1534 30.5673 36.2146C29.1148 36.2809 28.6791 36.295 25.0001 36.295C21.3211 36.295 20.8855 36.2809 19.4329 36.2146C18.0897 36.1533 17.3602 35.9289 16.8747 35.7403C16.2763 35.5194 15.735 35.1672 15.2906 34.7097C14.8331 34.2653 14.4809 33.724 14.2601 33.1256C14.0714 32.6401 13.8469 31.9107 13.7857 30.5674C13.7194 29.1147 13.7054 28.679 13.7054 25.0002C13.7054 21.3215 13.7194 20.8859 13.7857 19.4331C13.847 18.0898 14.0714 17.3604 14.2601 16.8749C14.4809 16.2765 14.8331 15.7351 15.2907 15.2907C15.7351 14.8332 16.2764 14.481 16.8748 14.2602C17.3603 14.0715 18.0898 13.8471 19.433 13.7858C20.8858 13.7195 21.3215 13.7055 25.0002 13.7055L25.0001 13.7055ZM25.0002 11.2231C21.2586 11.2231 20.7892 11.239 19.32 11.3061C17.8536 11.373 16.8521 11.6058 15.9758 11.9464C15.0566 12.2924 14.2238 12.8347 13.5357 13.5355C12.8347 14.2236 12.2922 15.0563 11.9462 15.9757C11.6058 16.852 11.373 17.8535 11.3063 19.3199C11.239 20.7891 11.2231 21.2585 11.2231 25.0001C11.2231 28.7417 11.239 29.211 11.3063 30.6802C11.3733 32.1467 11.6061 33.1481 11.9467 34.0244C12.2926 34.9437 12.8349 35.7764 13.5358 36.4646C14.2239 37.1654 15.0567 37.7077 15.9759 38.0536C16.8523 38.3942 17.8537 38.6271 19.3201 38.694C20.7896 38.7611 21.2587 38.7769 25.0003 38.7769C28.7418 38.7769 29.2112 38.7611 30.6805 38.694C32.1469 38.6271 33.1483 38.3942 34.0247 38.0536C34.9398 37.6997 35.771 37.1585 36.4648 36.4646C37.1587 35.7708 37.6999 34.9396 38.0539 34.0244C38.3945 33.1481 38.6273 32.1466 38.6943 30.6802C38.7613 29.2108 38.7772 28.7416 38.7772 25.0001C38.7772 21.2585 38.7613 20.7891 38.6943 19.3199C38.6273 17.8535 38.3945 16.852 38.0539 15.9757C37.7079 15.0564 37.1656 14.2237 36.4648 13.5356C35.7766 12.8346 34.9438 12.2922 34.0245 11.9462C33.1481 11.6058 32.1467 11.373 30.6802 11.3063C29.211 11.239 28.7417 11.2231 25.0001 11.2231H25.0002Z" fill="white"/>
<path d="M25.0001 17.9258C23.6008 17.9258 22.233 18.3407 21.0696 19.1181C19.9062 19.8954 18.9994 21.0004 18.4639 22.2931C17.9285 23.5858 17.7884 25.0083 18.0614 26.3806C18.3343 27.753 19.0081 29.0136 19.9975 30.003C20.9869 30.9924 22.2475 31.6662 23.6199 31.9391C24.9922 32.2121 26.4147 32.072 27.7074 31.5366C29.0001 31.0011 30.105 30.0943 30.8824 28.9309C31.6598 27.7675 32.0747 26.3997 32.0747 25.0004C32.0747 23.1241 31.3294 21.3247 30.0026 19.9979C28.6758 18.6711 26.8764 17.9258 25.0001 17.9258V17.9258ZM25.0001 29.5927C24.0918 29.5927 23.2039 29.3234 22.4488 28.8187C21.6936 28.3141 21.105 27.5969 20.7574 26.7578C20.4098 25.9186 20.3189 24.9953 20.4961 24.1045C20.6733 23.2137 21.1107 22.3954 21.7529 21.7532C22.3952 21.1109 23.2134 20.6736 24.1042 20.4964C24.995 20.3192 25.9184 20.4101 26.7575 20.7577C27.5966 21.1053 28.3139 21.6939 28.8185 22.4491C29.3231 23.2043 29.5924 24.0922 29.5924 25.0004C29.5924 26.2184 29.1085 27.3864 28.2473 28.2477C27.3861 29.1089 26.218 29.5927 25.0001 29.5927Z" fill="white"/>
<path d="M32.3541 19.2991C33.2672 19.2991 34.0073 18.5589 34.0073 17.6459C34.0073 16.7328 33.2672 15.9927 32.3541 15.9927C31.4411 15.9927 30.7009 16.7328 30.7009 17.6459C30.7009 18.5589 31.4411 19.2991 32.3541 19.2991Z" fill="white"/>
</svg>
