<svg width="51" height="50" viewBox="0 0 51 50" fill="none" xmlns="http://www.w3.org/2000/svg">
<mask id="mask0" mask-type="alpha" maskUnits="userSpaceOnUse" x="0" y="0" width="51" height="50">
<path d="M0 25C0 11.1929 11.3211 0 25.1282 0C38.9353 0 50.2564 11.1929 50.2564 25C50.2564 38.8071 38.9353 50 25.1282 50C11.3211 50 0 38.8071 0 25Z" fill="white"/>
</mask>
<g mask="url(#mask0)">
<path d="M25.1282 48C12.4123 48 2 37.6893 2 25H-2C-2 39.925 10.2299 52 25.1282 52V48ZM48.2564 25C48.2564 37.6893 37.8441 48 25.1282 48V52C40.0266 52 52.2564 39.925 52.2564 25H48.2564ZM25.1282 2C37.8441 2 48.2564 12.3107 48.2564 25H52.2564C52.2564 10.075 40.0266 -2 25.1282 -2V2ZM25.1282 -2C10.2299 -2 -2 10.075 -2 25H2C2 12.3107 12.4123 2 25.1282 2V-2Z" fill="white"/>
</g>
<path d="M28.8769 24.9356L39.6582 37H10.3408L21.1221 24.9356L25 28.3281L28.8769 24.9356ZM39.4805 13H10.5186L25 25.6719L39.4805 13ZM30.3828 23.6191L41 35.5V14.3281L30.3828 23.6191ZM9 14.3281V35.5L19.6162 23.6172L9 14.3281Z" fill="white"/>
</svg>
