<svg width="51" height="50" viewBox="0 0 51 50" version="1.1" xmlns="http://www.w3.org/2000/svg" xmlns:xlink="http://www.w3.org/1999/xlink">
<title>Group 3</title>
<desc>Created using Figma</desc>
<g id="Canvas" transform="translate(-9343 -1548)">
<g id="Group 3">
<g id="Rectangle 2.17">
<mask id="mask0_outline_ins">
<use xlink:href="#path0_fill" fill="white" transform="translate(9343 1548)"/>
</mask>
<g mask="url(#mask0_outline_ins)">
<use xlink:href="#path1_stroke_2x" transform="translate(9343 1548)" fill="#FFFFFF"/>
</g>
</g>
<g id="Group">
<g id="Vector">
<use xlink:href="#path2_fill" transform="translate(9355 1562)" fill="#FFFFFF"/>
</g>
</g>
</g>
</g>
<defs>
<path id="path0_fill" d="M 0 25C 0 11.1929 11.3211 0 25.1282 0C 38.9353 0 50.2564 11.1929 50.2564 25C 50.2564 38.8071 38.9353 50 25.1282 50C 11.3211 50 0 38.8071 0 25Z"/>
<path id="path1_stroke_2x" d="M 25.1282 48C 12.4123 48 2 37.6893 2 25L -2 25C -2 39.925 10.2299 52 25.1282 52L 25.1282 48ZM 48.2564 25C 48.2564 37.6893 37.8441 48 25.1282 48L 25.1282 52C 40.0266 52 52.2564 39.925 52.2564 25L 48.2564 25ZM 25.1282 2C 37.8441 2 48.2564 12.3107 48.2564 25L 52.2564 25C 52.2564 10.075 40.0266 -2 25.1282 -2L 25.1282 2ZM 25.1282 -2C 10.2299 -2 -2 10.075 -2 25L 2 25C 2 12.3107 12.4123 2 25.1282 2L 25.1282 -2Z"/>
<path id="path2_fill" d="M 27.1056 21.4034C 23.4463 21.4034 19.9965 21.4034 16.3865 21.4034C 16.5221 21.119 16.5837 20.8841 16.7315 20.7234C 17.2983 20.1299 17.9266 19.5858 18.4811 18.9924C 18.6536 18.8069 18.8137 18.4978 18.8137 18.2505C 18.8384 14.331 18.826 10.4239 18.826 6.50436C 18.826 6.44253 18.8137 6.39308 18.7768 6.18288C 18.6412 6.51672 18.5427 6.72691 18.4564 6.93711C 16.633 11.5737 14.7972 16.2227 12.9737 20.8594C 12.8628 21.1314 12.8259 21.4281 12.3823 21.4281C 11.9511 21.4405 11.8279 21.1932 11.6924 20.8841C 9.56087 16.2351 7.44171 11.5861 5.32255 6.93711C 5.21166 6.70219 5.10077 6.46726 4.89132 6.25707C 4.89132 6.40544 4.89132 6.56618 4.89132 6.71455C 4.89132 9.96637 4.86668 13.2182 4.90364 16.4824C 4.90364 16.8533 5.08845 17.2861 5.32255 17.5952C 6.13571 18.6585 7.01048 19.6724 7.84829 20.711C 7.98382 20.8841 8.05774 21.1067 8.20559 21.391C 5.43343 21.391 2.78448 21.391 0 21.391C 0.135528 21.1067 0.209452 20.8594 0.357301 20.6863C 1.15815 19.6971 1.95899 18.708 2.78448 17.7312C 3.14178 17.2984 3.30195 16.841 3.30195 16.2722C 3.27731 12.3774 3.30195 8.48265 3.26499 4.58788C 3.26499 4.17986 3.06786 3.71001 2.82144 3.37618C 2.16844 2.48594 1.4292 1.68226 0.751563 0.82912C 0.591394 0.618926 0.505149 0.359275 0.320338 0.0130728C 1.54009 0.0130728 2.59967 0.0130728 3.65925 0.0130728C 4.98989 0.0130728 6.33285 0.0254372 7.66348 0.000708478C 8.09471 -0.0116559 8.30416 0.136716 8.47665 0.532376C 10.3001 4.60025 12.1605 8.64339 14.0086 12.6989C 14.0826 12.8596 14.1688 13.0204 14.292 13.2677C 15.1545 11.1163 15.9923 9.05141 16.8178 6.98657C 17.6925 4.81044 18.5427 2.63432 19.4298 0.470554C 19.5037 0.285089 19.7255 0.0254372 19.8733 0.0254372C 22.2635 0.000708478 24.6414 0.0130728 27.1795 0.0130728C 27.007 0.309817 26.9331 0.532376 26.7852 0.693112C 26.2185 1.26187 25.6024 1.78117 25.0726 2.37466C 24.8509 2.62195 24.6661 3.00525 24.6661 3.32672C 24.6414 8.24773 24.6414 13.1687 24.6661 18.1021C 24.6661 18.4236 24.8509 18.8069 25.0726 19.0542C 25.5901 19.6477 26.1815 20.1546 26.7236 20.7234C 26.8468 20.8841 26.9331 21.1067 27.1056 21.4034Z"/>
</defs>
</svg>
