<svg width="51" height="50" viewBox="0 0 51 50" version="1.1" xmlns="http://www.w3.org/2000/svg" xmlns:xlink="http://www.w3.org/1999/xlink">
<title>Group 2</title>
<desc>Created using Figma</desc>
<g id="Canvas" transform="translate(-9402 -1548)">
<g id="Group 2">
<g id="Rectangle 2.19">
<mask id="mask0_outline_ins">
<use xlink:href="#path0_fill" fill="white" transform="translate(9402 1548)"/>
</mask>
<g mask="url(#mask0_outline_ins)">
<use xlink:href="#path1_stroke_2x" transform="translate(9402 1548)" fill="#FFFFFF"/>
</g>
</g>
<g id="Group">
<g id="Vector">
<use xlink:href="#path2_fill" transform="translate(9412 1560)" fill="#FFFFFF"/>
</g>
</g>
</g>
</g>
<defs>
<path id="path0_fill" d="M 0 25C 0 11.1929 11.3211 0 25.1282 0C 38.9353 0 50.2564 11.1929 50.2564 25C 50.2564 38.8071 38.9353 50 25.1282 50C 11.3211 50 0 38.8071 0 25Z"/>
<path id="path1_stroke_2x" d="M 25.1282 48C 12.4123 48 2 37.6893 2 25L -2 25C -2 39.925 10.2299 52 25.1282 52L 25.1282 48ZM 48.2564 25C 48.2564 37.6893 37.8441 48 25.1282 48L 25.1282 52C 40.0266 52 52.2564 39.925 52.2564 25L 48.2564 25ZM 25.1282 2C 37.8441 2 48.2564 12.3107 48.2564 25L 52.2564 25C 52.2564 10.075 40.0266 -2 25.1282 -2L 25.1282 2ZM 25.1282 -2C 10.2299 -2 -2 10.075 -2 25L 2 25C 2 12.3107 12.4123 2 25.1282 2L 25.1282 -2Z"/>
<path id="path2_fill" d="M 18.6809 2.04155C 18.1478 3.69203 17.6699 5.24978 17.1369 6.90025C 19.9675 7.17842 22.5775 7.90166 24.9301 9.53359C 25.9962 8.71762 27.1541 8.32819 28.5143 8.77326C 31.0875 9.64486 31.8595 12.7604 29.8928 14.6334C 29.3046 15.1897 29.1392 15.709 29.176 16.4693C 29.323 19.4921 27.9261 21.8287 25.6653 23.6461C 22.1731 26.4648 18.1111 27.2994 13.755 26.9099C 10.5568 26.6318 7.57921 25.6303 5.09788 23.4977C 2.80035 21.5134 1.47698 19.0655 1.86296 15.8759C 1.89972 15.5791 1.53212 15.1526 1.25641 14.893C 0.0984596 13.8174 -0.324286 12.1855 0.263881 10.7575C 0.833668 9.36669 2.23057 8.458 3.70098 8.64345C 4.32591 8.71762 4.93246 8.99579 5.50224 9.27396C 5.96175 9.4965 6.29259 9.51504 6.7521 9.21833C 9.12315 7.66058 11.7515 6.95588 14.5453 6.80753C 15.0967 6.77044 15.354 6.60354 15.5011 6.08429C 15.9973 4.39672 16.5304 2.72771 17.0266 1.05869C 17.284 0.242723 17.6699 -0.183804 18.6441 0.075821C 19.9859 0.446714 21.3828 0.724884 22.7613 0.947419C 23.184 1.0216 23.7354 0.91033 24.0663 0.66925C 25.3713 -0.313617 27.1174 -0.146715 28.0548 1.15141C 28.9186 2.33827 28.5327 4.1371 27.2277 4.95306C 25.9043 5.78757 24.1214 5.36104 23.4597 3.91456C 23.0921 3.11714 22.5958 2.85752 21.8055 2.74625C 20.7946 2.54226 19.7837 2.28263 18.6809 2.04155ZM 15.7033 23.1824C 17.6148 23.0897 19.3609 22.5519 20.2616 21.6803C 20.5189 21.4392 20.7762 20.8829 20.6475 20.6418C 20.3902 20.0855 19.8572 20.2153 19.3977 20.512C 16.8061 22.0883 14.2145 22.0883 11.6229 20.5306C 11.1817 20.2524 10.6487 20.0484 10.3179 20.5676C 9.96864 21.1425 10.4281 21.5134 10.8876 21.8287C 12.3397 22.8301 13.9755 23.1454 15.7033 23.1824ZM 10.759 17.174C 11.825 17.174 12.7441 16.2838 12.7808 15.2268C 12.8176 14.1141 11.8986 13.1498 10.7957 13.1127C 9.67455 13.0942 8.77392 13.9658 8.77392 15.1341C 8.75554 16.3024 9.60103 17.174 10.759 17.174ZM 20.2248 17.174C 21.3092 17.174 22.2282 16.2838 22.2466 15.2082C 22.265 14.0956 21.3644 13.1312 20.2616 13.1127C 19.1587 13.0942 18.1662 14.077 18.1846 15.1155C 18.203 16.2653 19.122 17.174 20.2248 17.174Z"/>
</defs>
</svg>
