<svg width="51" height="50" viewBox="0 0 51 50" fill="none" xmlns="http://www.w3.org/2000/svg">
<mask id="mask0" mask-type="alpha" maskUnits="userSpaceOnUse" x="0" y="0" width="51" height="50">
<path d="M0 25C0 11.1929 11.3211 0 25.1282 0C38.9353 0 50.2564 11.1929 50.2564 25C50.2564 38.8071 38.9353 50 25.1282 50C11.3211 50 0 38.8071 0 25Z" fill="white"/>
</mask>
<g mask="url(#mask0)">
<path d="M25.1282 48C12.4123 48 2 37.6893 2 25H-2C-2 39.925 10.2299 52 25.1282 52V48ZM48.2564 25C48.2564 37.6893 37.8441 48 25.1282 48V52C40.0266 52 52.2564 39.925 52.2564 25H48.2564ZM25.1282 2C37.8441 2 48.2564 12.3107 48.2564 25H52.2564C52.2564 10.075 40.0266 -2 25.1282 -2V2ZM25.1282 -2C10.2299 -2 -2 10.075 -2 25H2C2 12.3107 12.4123 2 25.1282 2V-2Z" fill="white"/>
</g>
<path d="M32.178 31.7074C33.1755 28.9774 36.833 18.6 37.4175 15.8805C38.0825 12.8005 36.693 12.503 33.5325 13.5355C30.3737 14.568 22.2713 17.5692 20.9063 18.054C19.5413 18.5387 12.9035 20.7699 11.5263 21.4349C8.7158 22.9434 10.0825 25.2447 13.2238 26.4399C22.6213 30.9497 19.9525 28.6519 24.1473 36.9959C25.01 39.1274 27.0452 42.7586 28.9947 40.0129C30.0202 38.4519 31.3922 33.8529 32.1797 31.7057L32.178 31.7074Z" fill="white"/>
</svg>
