<svg width="51" height="50" viewBox="0 0 51 50" version="1.1" xmlns="http://www.w3.org/2000/svg" xmlns:xlink="http://www.w3.org/1999/xlink">
<title>Group 2</title>
<desc>Created using Figma</desc>
<g id="Canvas" transform="translate(-9459 -1548)">
<g id="Group 2">
<g id="Rectangle 2.21">
<mask id="mask0_outline_ins">
<use xlink:href="#path0_fill" fill="white" transform="translate(9459.74 1548)"/>
</mask>
<g mask="url(#mask0_outline_ins)">
<use xlink:href="#path1_stroke_2x" transform="translate(9459.74 1548)" fill="#FFFFFF"/>
</g>
</g>
<g id="Group">
<g id="Group">
<g id="Vector">
<use xlink:href="#path2_fill" transform="translate(9471.23 1561.57)" fill="#FFFFFF"/>
</g>
</g>
</g>
</g>
</g>
<defs>
<path id="path0_fill" d="M 0 25C 0 11.1929 11.3211 0 25.1282 0C 38.9353 0 50.2564 11.1929 50.2564 25C 50.2564 38.8071 38.9353 50 25.1282 50C 11.3211 50 0 38.8071 0 25Z"/>
<path id="path1_stroke_2x" d="M 25.1282 48C 12.4123 48 2 37.6893 2 25L -2 25C -2 39.925 10.2299 52 25.1282 52L 25.1282 48ZM 48.2564 25C 48.2564 37.6893 37.8441 48 25.1282 48L 25.1282 52C 40.0266 52 52.2564 39.925 52.2564 25L 48.2564 25ZM 25.1282 2C 37.8441 2 48.2564 12.3107 48.2564 25L 52.2564 25C 52.2564 10.075 40.0266 -2 25.1282 -2L 25.1282 2ZM 25.1282 -2C 10.2299 -2 -2 10.075 -2 25L 2 25C 2 12.3107 12.4123 2 25.1282 2L 25.1282 -2Z"/>
<path id="path2_fill" d="M 0 20.886C 3.12926 21.1046 5.85637 20.3459 8.36984 18.4168C 7.08797 18.2625 5.96948 17.9281 5.02693 17.1822C 4.10952 16.4491 3.40575 15.536 3.02873 14.2886C 3.8456 14.2886 4.59964 14.2886 5.35368 14.2886C 5.36625 14.2371 5.37882 14.1857 5.39138 14.1214C 4.10952 13.7484 3.01616 13.0797 2.19928 12.0123C 1.38241 10.9577 0.980251 9.73594 0.942549 8.39845C 1.75943 8.62994 2.5386 8.86143 3.33034 9.08006C 3.35548 9.02861 3.39318 8.97717 3.41831 8.92573C 2.28725 7.97405 1.47038 6.82947 1.16876 5.35051C 0.879713 3.89727 1.04309 2.50833 1.78456 1.10654C 4.92639 4.86181 8.87253 6.94521 13.7235 7.29245C 13.5727 6.0707 13.5601 4.93897 13.9749 3.83297C 15.4075 -0.0380464 20.2334 -1.27266 23.237 1.50522C 23.5763 1.81387 23.8654 1.86531 24.2298 1.7367C 25.2226 1.37661 26.2029 0.990795 27.2208 0.604979C 26.8312 1.87817 25.9892 2.81699 24.9964 3.73008C 25.9641 3.47287 26.9318 3.2028 27.8869 2.94559C 27.9246 2.98417 27.9623 3.00989 28 3.04848C 27.2711 3.82011 26.5673 4.63032 25.7756 5.32479C 25.3483 5.69774 25.2101 6.04498 25.1849 6.61084C 24.9587 12.9125 22.4327 18.0053 17.0539 21.2075C 11.5745 24.4612 5.93178 24.2683 0.37702 21.1689C 0.276481 21.1046 0.18851 21.0275 0 20.886Z"/>
</defs>
</svg>
